<svg width="172" height="166" viewBox="0 0 172 166" fill="none" xmlns="http://www.w3.org/2000/svg">
<circle cx="7" cy="26" r="7" fill="#F08AB7" fill-opacity="0.63"/>
<circle cx="92.2971" cy="86.7089" r="72.0544" transform="rotate(-5.60399 92.2971 86.7089)" fill="#F9E1EE" fill-opacity="0.88"/>
<path d="M46.6801 87.314L35.0301 87.3042C33.0801 87.3025 31.9291 88.5016 31.9277 90.1516L31.9256 92.7016L43.4256 92.7112C45.4756 92.7129 46.6764 91.714 46.6779 89.964L46.6801 87.314ZM64.6687 105.029L64.6944 74.4291C64.6959 72.6291 63.2475 70.7778 61.0475 70.776C59.1975 70.7744 58.0472 71.0735 54.596 72.5706L48.3937 75.3154L48.6922 77.0656C48.9409 78.5658 50.0901 79.5668 51.9901 79.5684C52.7401 79.569 53.5902 79.4197 54.5405 79.0705L57.8415 77.8733L57.8225 100.573C57.82 103.523 59.6188 105.025 61.9688 105.027L64.6687 105.029ZM95.8847 93.9552C95.8899 87.7552 90.543 84.1007 83.993 84.0953C82.543 84.094 80.6428 84.2424 79.4927 84.3915L79.4991 76.7415L90.0991 76.7504C93.1491 76.7529 94.7505 75.1043 94.7526 72.6043L94.7541 70.8043L78.2541 70.7904C74.2041 70.787 72.8023 72.9359 72.799 76.8859L72.7876 90.5359C75.188 89.9879 78.0385 89.4403 80.7885 89.4426C86.2885 89.4472 88.8873 90.8494 88.8844 94.3494C88.8815 97.7494 86.9799 99.6478 81.9799 99.6436C77.4299 99.6398 74.9808 98.6377 72.6824 96.6358L72.4324 96.6356L72.4303 99.1856C72.4271 103.036 75.3749 105.638 82.6749 105.644C90.6749 105.651 95.8785 101.305 95.8847 93.9552ZM118.688 81.2244C118.692 75.5244 115.497 70.4717 109.997 70.4671C104.047 70.4621 100.842 75.5594 100.837 82.0094C100.832 87.7094 104.028 92.7621 109.528 92.7667C115.478 92.7717 118.682 87.6744 118.688 81.2244ZM132.293 74.9858C132.543 74.436 132.644 73.7361 132.644 73.0861C132.646 71.6361 131.546 70.9351 130.296 70.9341L128.596 70.9327L114.822 99.7211C114.221 100.921 114.021 101.52 114.02 102.47C114.018 104.22 115.168 105.071 116.768 105.073L118.018 105.074L132.293 74.9858ZM146.327 94.0476C146.332 88.3476 143.086 83.2948 137.586 83.2902C131.636 83.2852 128.482 88.3326 128.476 94.7826C128.471 100.483 131.667 105.585 137.167 105.59C143.117 105.595 146.321 100.498 146.327 94.0476ZM113.137 82.0197C113.134 85.5197 112.082 87.9688 109.932 87.967C107.432 87.9649 106.384 85.464 106.388 81.214C106.391 77.714 107.443 75.2649 109.593 75.2667C112.043 75.2688 113.141 77.7197 113.137 82.0197ZM140.976 94.6431C140.973 98.1431 139.921 100.592 137.771 100.59C135.271 100.588 134.173 98.1374 134.177 93.8874C134.18 90.3874 135.282 87.9383 137.432 87.9401C139.882 87.9421 140.98 90.3431 140.976 94.6431Z" fill="#F08AB7"/>
<circle cx="126.946" cy="20.6945" r="20.6945" fill="#E8EEC5"/>
</svg>
