<svg width="25" height="14" viewBox="0 0 25 14" fill="none" xmlns="http://www.w3.org/2000/svg">
<path d="M24.856 12.0612C24.8267 12.0038 24.7993 11.9562 24.7739 11.9181C24.3533 11.231 23.5496 10.3877 22.363 9.38782L22.3381 9.36492L22.3254 9.35369L22.3127 9.34218H22.3C21.7616 8.87661 21.4206 8.56356 21.2778 8.40328C21.0165 8.09797 20.9579 7.78894 21.1008 7.47581C21.2017 7.23923 21.5806 6.7396 22.2367 5.97625C22.5819 5.5717 22.8553 5.24747 23.0571 5.00319C24.513 3.24768 25.1441 2.12589 24.9505 1.63737L24.8753 1.52321C24.8247 1.45448 24.6944 1.39161 24.4842 1.33427C24.2736 1.27705 24.0045 1.26759 23.6762 1.30572L20.0411 1.32849C19.9823 1.30957 19.8982 1.31133 19.7886 1.33427C19.6791 1.35721 19.6245 1.36871 19.6245 1.36871L19.5612 1.39738L19.511 1.43183C19.4688 1.4546 19.4227 1.49466 19.3721 1.55192C19.3218 1.60898 19.2798 1.67595 19.2462 1.75225C18.8504 2.67576 18.4005 3.53439 17.8955 4.32809C17.5841 4.80138 17.2982 5.21153 17.037 5.55883C16.7762 5.906 16.5575 6.16179 16.3808 6.32575C16.204 6.48987 16.0445 6.62135 15.9011 6.72068C15.7579 6.82004 15.6487 6.86202 15.5731 6.84667C15.4973 6.83131 15.4259 6.81608 15.3583 6.80083C15.2406 6.73211 15.1458 6.63863 15.0744 6.52034C15.0028 6.40206 14.9545 6.25317 14.9292 6.07381C14.9041 5.89433 14.8893 5.73995 14.8851 5.61016C14.8811 5.48052 14.8829 5.29715 14.8915 5.06056C14.9002 4.82386 14.9041 4.66371 14.9041 4.57975C14.9041 4.28967 14.9104 3.97486 14.9229 3.63523C14.9356 3.2956 14.9459 3.0265 14.9545 2.82825C14.9631 2.62981 14.9671 2.41985 14.9671 2.19851C14.9671 1.97716 14.9522 1.80358 14.9229 1.67759C14.8939 1.55176 14.8493 1.42962 14.7907 1.31121C14.7316 1.19292 14.6453 1.10142 14.532 1.03646C14.4184 0.971579 14.2772 0.920093 14.1091 0.881839C13.6631 0.790295 13.0951 0.740773 12.405 0.733074C10.84 0.717837 9.83434 0.809502 9.38836 1.00795C9.21166 1.09179 9.05176 1.20635 8.90879 1.35127C8.75727 1.51924 8.73615 1.61091 8.84552 1.62598C9.35047 1.69459 9.70795 1.85871 9.91834 2.11819L9.99416 2.25569C10.0531 2.35489 10.112 2.53052 10.1709 2.78234C10.2298 3.03415 10.2678 3.31272 10.2845 3.61786C10.3265 4.17512 10.3265 4.65213 10.2845 5.04894C10.2424 5.44591 10.2026 5.75495 10.1646 5.97629C10.1266 6.19764 10.0698 6.37699 9.99416 6.51433C9.91834 6.65171 9.8679 6.73567 9.84261 6.76615C9.81737 6.79662 9.79633 6.81584 9.77961 6.82337C9.67024 6.86139 9.55649 6.88075 9.43876 6.88075C9.32085 6.88075 9.17788 6.82726 9.00962 6.72036C8.84141 6.61346 8.66682 6.46662 8.48588 6.2796C8.30493 6.09254 8.10086 5.83114 7.87359 5.49535C7.64649 5.15956 7.41085 4.76272 7.16681 4.30479L6.96491 3.9727C6.83869 3.75905 6.66628 3.44797 6.44749 3.03974C6.22857 2.63132 6.03507 2.23628 5.86685 1.85467C5.7996 1.69439 5.6986 1.57237 5.56398 1.48841L5.5008 1.45396C5.4588 1.42349 5.39138 1.39113 5.2989 1.35664C5.20628 1.3222 5.10964 1.2975 5.00857 1.2823L1.55015 1.30508C1.19674 1.30508 0.956955 1.37769 0.830694 1.52273L0.780163 1.59134C0.75492 1.62955 0.742188 1.69058 0.742188 1.77459C0.742188 1.85856 0.767431 1.9616 0.817962 2.08363C1.32283 3.15987 1.87186 4.19781 2.46506 5.19762C3.05825 6.19744 3.57372 7.00281 4.01118 7.61303C4.44872 8.22369 4.89469 8.80002 5.34912 9.34174C5.80354 9.88368 6.10434 10.231 6.25152 10.3835C6.39886 10.5364 6.5146 10.6507 6.59873 10.727L6.91434 11.0017C7.11628 11.1849 7.41284 11.4043 7.80413 11.66C8.19552 11.9158 8.6288 12.1675 9.10423 12.4158C9.57975 12.6637 10.1329 12.8659 10.7641 13.0224C11.3952 13.1789 12.0094 13.2417 12.6069 13.2114H14.0584C14.3528 13.1884 14.5759 13.1044 14.7275 12.9595L14.7777 12.9021C14.8115 12.8566 14.8431 12.7858 14.8722 12.6906C14.9018 12.5952 14.9165 12.49 14.9165 12.3758C14.9079 12.0476 14.9354 11.7519 14.9983 11.4886C15.0612 11.2254 15.133 11.027 15.2132 10.8933C15.2933 10.7598 15.3838 10.6471 15.4845 10.5558C15.5853 10.4642 15.6572 10.4088 15.6994 10.3897C15.7413 10.3705 15.7748 10.3574 15.8 10.3496C16.0019 10.2886 16.2396 10.3477 16.5133 10.5272C16.7869 10.7066 17.0434 10.928 17.2834 11.1913C17.5233 11.4547 17.8114 11.7503 18.1479 12.0783C18.4846 12.4066 18.779 12.6506 19.0314 12.8111L19.2838 12.9485C19.4522 13.0401 19.671 13.1241 19.9404 13.2004C20.2092 13.2767 20.4447 13.2958 20.647 13.2577L23.8782 13.2119C24.1977 13.2119 24.4464 13.1639 24.6228 13.0687C24.7995 12.9733 24.9045 12.8683 24.9384 12.7539C24.9721 12.6394 24.9739 12.5096 24.9448 12.3645C24.9149 12.2197 24.8853 12.1185 24.856 12.0612Z" fill="white"/>
</svg>
