<svg width="25" height="16" viewBox="0 0 25 16" fill="none" xmlns="http://www.w3.org/2000/svg">
<path fill-rule="evenodd" clip-rule="evenodd" d="M22.2662 1.0971C23.3043 1.33839 24.1218 2.04555 24.4005 2.94179C24.9176 4.57755 24.8935 7.98802 24.8935 7.98802C24.8935 7.98802 24.8898 11.3797 24.3884 13.0144C24.1061 13.9096 23.2849 14.6157 22.248 14.8559C20.3512 15.2842 12.7627 15.2769 12.7627 15.2769C12.7627 15.2769 5.19479 15.2696 3.27859 14.8205C2.23933 14.5792 1.42173 13.8719 1.14314 12.9768C0.646524 11.3577 0.651369 7.94832 0.651369 7.94832C0.651369 7.94832 0.656214 4.55562 1.15646 2.91985C1.43747 2.02466 2.27808 1.30184 3.29554 1.06263C5.19358 0.633321 12.7809 0.640633 12.7809 0.640633C12.7809 0.640633 20.3694 0.647945 22.2662 1.0971ZM10.3599 4.82446L10.3539 11.0918L16.6669 7.96335L10.3599 4.82446Z" fill="white"/>
</svg>
