<svg width="25" height="25" viewBox="0 0 25 25" fill="none" xmlns="http://www.w3.org/2000/svg">
<path fill-rule="evenodd" clip-rule="evenodd" d="M23.527 7.98019C23.5137 7.06262 23.344 6.15231 23.0191 5.29413C22.4506 3.82868 21.2931 2.66989 19.8276 2.10262C18.9803 1.78383 18.0846 1.61292 17.1779 1.59353C16.0119 1.5414 15.6422 1.52686 12.6823 1.52686C9.72223 1.52686 9.34284 1.52686 8.18526 1.59353C7.27982 1.61292 6.38406 1.78383 5.53679 2.10262C4.07134 2.66989 2.91256 3.82868 2.34528 5.29413C2.0265 6.1414 1.85437 7.03716 1.83741 7.94262C1.78528 9.10989 1.76953 9.47959 1.76953 12.4396C1.76953 15.3996 1.76953 15.7778 1.83741 16.9366C1.85559 17.8433 2.0265 18.7378 2.34528 19.5875C2.91377 21.0518 4.07134 22.2105 5.538 22.7778C6.38164 23.1075 7.27739 23.2942 8.18647 23.3233C9.35374 23.3754 9.72344 23.3911 12.6835 23.3911C15.6434 23.3911 16.0228 23.3911 17.1803 23.3233C18.0858 23.3051 18.9816 23.1342 19.83 22.8154C21.2955 22.2469 22.4531 21.0881 23.0216 19.6239C23.3403 18.7754 23.5112 17.8808 23.5294 16.973C23.5816 15.8069 23.5973 15.4372 23.5973 12.476V12.4355V12.4353C23.5949 9.51247 23.5946 9.13485 23.527 7.98019ZM12.6748 18.0372C9.57902 18.0372 7.07115 15.5293 7.07115 12.4335C7.07115 9.33777 9.57902 6.82989 12.6748 6.82989C15.7681 6.82989 18.2784 9.33777 18.2784 12.4335C18.2784 15.5293 15.7681 18.0372 12.6748 18.0372ZM17.1949 6.62259C17.1949 7.34502 17.778 7.92926 18.5017 7.92926C19.2229 7.92926 19.8071 7.34502 19.8071 6.62259C19.8071 5.90016 19.2229 5.31591 18.5017 5.31591C17.778 5.31591 17.1949 5.90016 17.1949 6.62259Z" fill="white"/>
<path d="M12.6751 16.072C14.6854 16.072 16.3151 14.4423 16.3151 12.432C16.3151 10.4217 14.6854 8.79199 12.6751 8.79199C10.6648 8.79199 9.03516 10.4217 9.03516 12.432C9.03516 14.4423 10.6648 16.072 12.6751 16.072Z" fill="white"/>
</svg>
