<svg width="114" height="79" viewBox="0 0 114 79" fill="none" xmlns="http://www.w3.org/2000/svg">
<g opacity="0.78">
<path d="M101.607 55.0024H69.7834C69.1547 55.0024 68.5518 54.7527 68.1073 54.3081C67.6628 53.8636 67.4131 53.2607 67.4131 52.6321V10.011H103.977V52.6431C103.974 53.2698 103.723 53.8699 103.279 54.312C102.835 54.7542 102.233 55.0024 101.607 55.0024Z" fill="white"/>
<path d="M105.086 12.6886H66.5693V9.94519C66.5693 9.47828 66.6613 9.01595 66.84 8.58459C67.0187 8.15323 67.2805 7.76128 67.6107 7.43113C67.9408 7.10098 68.3328 6.83909 68.7642 6.66041C69.1955 6.48173 69.6578 6.38977 70.1248 6.38977H101.531C101.998 6.38977 102.46 6.48173 102.892 6.66041C103.323 6.83909 103.715 7.10098 104.045 7.43113C104.375 7.76128 104.637 8.15323 104.816 8.58459C104.994 9.01595 105.086 9.47828 105.086 9.94519V12.6886Z" fill="#002169"/>
<path d="M97.9741 51.293H72.9435C72.3641 51.2528 71.8215 50.9943 71.4252 50.5697C71.029 50.145 70.8086 49.5858 70.8086 49.005C70.8086 48.4242 71.029 47.865 71.4252 47.4404C71.8215 47.0157 72.3641 46.7572 72.9435 46.717H97.9741C98.5535 46.7572 99.0961 47.0157 99.4924 47.4404C99.8886 47.865 100.109 48.4242 100.109 49.005C100.109 49.5858 99.8886 50.145 99.4924 50.5697C99.0961 50.9943 98.5535 51.2528 97.9741 51.293Z" fill="white"/>
<path d="M97.0955 50.0423H92.2562C92.2379 50.0424 92.2198 50.0386 92.2031 50.0313C92.1864 50.0241 92.1713 50.0134 92.1589 49.9999C92.1466 49.9865 92.1371 49.9707 92.1312 49.9534C92.1252 49.9362 92.123 49.9178 92.1245 49.8997V48.1439C92.1245 48.109 92.1384 48.0755 92.1631 48.0508C92.1877 48.0261 92.2212 48.0122 92.2562 48.0122H97.0955C97.1304 48.0122 97.1639 48.0261 97.1886 48.0508C97.2133 48.0755 97.2272 48.109 97.2272 48.1439V49.8997C97.2287 49.9178 97.2264 49.9362 97.2205 49.9534C97.2145 49.9707 97.2051 49.9865 97.1927 49.9999C97.1803 50.0134 97.1653 50.0241 97.1485 50.0313C97.1318 50.0386 97.1137 50.0424 97.0955 50.0423ZM92.3659 49.768H96.9199V48.2865H92.3659V49.768Z" fill="white"/>
<g style="mix-blend-mode:multiply" opacity="0.5">
<g style="mix-blend-mode:multiply" opacity="0.5">
<g style="mix-blend-mode:multiply" opacity="0.5">
<g style="mix-blend-mode:multiply" opacity="0.5">
<path d="M100.604 10.0112H103.973V52.6433C103.97 53.2701 103.719 53.8701 103.275 54.3123C102.831 54.7544 102.23 55.0026 101.603 55.0026H100.604V10.0112Z" fill="#D8D7D7"/>
</g>
</g>
</g>
</g>
<g style="mix-blend-mode:multiply" opacity="0.5">
<g style="mix-blend-mode:multiply" opacity="0.5">
<g style="mix-blend-mode:multiply" opacity="0.5">
<g style="mix-blend-mode:multiply" opacity="0.5">
<path d="M88.1949 14.585H68.5576V73.6335C68.5616 74.5016 68.9093 75.3328 69.5245 75.9452C70.1398 76.5576 70.9725 76.9014 71.8406 76.9013H88.1949V14.585Z" fill="#D8D7D7"/>
</g>
</g>
</g>
</g>
<path d="M104.525 53.3892H66.4473V56.1655H104.525V53.3892Z" fill="#002169"/>
<rect x="68.1631" y="13.1807" width="35.6123" height="40.1329" stroke="#002169" stroke-width="1.5"/>
<path d="M44.0069 56.7595H12.1838C11.5551 56.7595 10.9522 56.5097 10.5077 56.0652C10.0632 55.6207 9.81348 55.0178 9.81348 54.3892V11.7681H46.3772V54.4002C46.3743 55.0269 46.1233 55.627 45.6791 56.0691C45.2349 56.5112 44.6337 56.7595 44.0069 56.7595Z" fill="white"/>
<path d="M47.4858 14.4456H8.96875V11.7023C8.96875 11.2354 9.06071 10.773 9.23939 10.3417C9.41807 9.91031 9.67996 9.51836 10.0101 9.18821C10.3403 8.85806 10.7322 8.59617 11.1636 8.41749C11.5949 8.23881 12.0573 8.14685 12.5242 8.14685H43.9304C44.3973 8.14685 44.8596 8.23881 45.2909 8.41749C45.7223 8.59617 46.1143 8.85806 46.4444 9.18821C46.7746 9.51836 47.0365 9.91031 47.2151 10.3417C47.3938 10.773 47.4858 11.2354 47.4858 11.7023V14.4456Z" fill="#002169"/>
<path d="M40.3745 53.0503H15.3439C14.7645 53.0102 14.2219 52.7517 13.8256 52.327C13.4294 51.9023 13.209 51.3432 13.209 50.7623C13.209 50.1815 13.4294 49.6223 13.8256 49.1977C14.2219 48.773 14.7645 48.5145 15.3439 48.4744H40.3745C40.9539 48.5145 41.4965 48.773 41.8928 49.1977C42.289 49.6223 42.5094 50.1815 42.5094 50.7623C42.5094 51.3432 42.289 51.9023 41.8928 52.327C41.4965 52.7517 40.9539 53.0102 40.3745 53.0503Z" fill="white"/>
<path d="M39.4959 51.7996H34.6566C34.6383 51.7997 34.6202 51.796 34.6035 51.7887C34.5868 51.7814 34.5717 51.7707 34.5593 51.7573C34.547 51.7439 34.5375 51.728 34.5316 51.7108C34.5256 51.6935 34.5234 51.6752 34.5249 51.657V49.9012C34.5249 49.8663 34.5387 49.8328 34.5634 49.8081C34.5881 49.7834 34.6216 49.7695 34.6566 49.7695H39.4959C39.5308 49.7695 39.5643 49.7834 39.589 49.8081C39.6137 49.8328 39.6276 49.8663 39.6276 49.9012V51.657C39.6291 51.6752 39.6268 51.6935 39.6209 51.7108C39.6149 51.728 39.6055 51.7439 39.5931 51.7573C39.5807 51.7707 39.5657 51.7814 39.5489 51.7887C39.5322 51.796 39.5141 51.7997 39.4959 51.7996ZM34.7663 51.5253H39.3203V50.0439H34.7663V51.5253Z" fill="white"/>
<g style="mix-blend-mode:multiply" opacity="0.5">
<g style="mix-blend-mode:multiply" opacity="0.5">
<g style="mix-blend-mode:multiply" opacity="0.5">
<g style="mix-blend-mode:multiply" opacity="0.5">
<path d="M43.0107 11.7676H46.3796V54.3997C46.3767 55.0264 46.1257 55.6265 45.6815 56.0686C45.2373 56.5108 44.6361 56.759 44.0093 56.759H43.0107V11.7676Z" fill="#D8D7D7"/>
</g>
</g>
</g>
</g>
<g style="mix-blend-mode:multiply" opacity="0.5">
<g style="mix-blend-mode:multiply" opacity="0.5">
<g style="mix-blend-mode:multiply" opacity="0.5">
<g style="mix-blend-mode:multiply" opacity="0.5">
<path d="M30.5923 16.3406H10.9551V75.3891C10.9591 76.2572 11.3068 77.0884 11.922 77.7008C12.5373 78.3132 13.37 78.657 14.2381 78.657H30.5923V16.3406Z" fill="#D8D7D7"/>
</g>
</g>
</g>
</g>
<path d="M46.9258 55.146H8.84766V57.9223H46.9258V55.146Z" fill="#002169"/>
<rect x="10.5615" y="14.9375" width="35.6123" height="40.1329" stroke="#002169" stroke-width="1.5"/>
<path d="M28.3701 63.3333L85.3382 63.3332" stroke="#002169" stroke-width="2" stroke-linecap="round" stroke-linejoin="round"/>
<path d="M109.033 55.3665H113.022" stroke="#002169" stroke-width="1.5" stroke-linecap="round" stroke-linejoin="round"/>
<path d="M0.879883 56.5046H4.86859" stroke="#002169" stroke-width="1.5" stroke-linecap="round" stroke-linejoin="round"/>
<path d="M76.5485 59.5569H37.991C37.2293 59.5569 36.4989 59.2543 35.9603 58.7157C35.4217 58.1772 35.1191 57.4467 35.1191 56.685V5.04456H79.4204V56.6983C79.4169 57.4577 79.1128 58.1847 78.5746 58.7205C78.0364 59.2562 77.3079 59.5569 76.5485 59.5569Z" fill="white"/>
<path d="M80.7646 8.28895H34.0967V4.96503C34.0967 4.39932 34.2081 3.83915 34.4246 3.31651C34.6411 2.79386 34.9584 2.31897 35.3584 1.91895C35.7584 1.51894 36.2333 1.20163 36.756 0.985138C37.2786 0.76865 37.8388 0.657227 38.4045 0.657227H76.4567C77.0225 0.657227 77.5826 0.76865 78.1053 0.985138C78.6279 1.20163 79.1028 1.51894 79.5028 1.91895C79.9028 2.31897 80.2202 2.79386 80.4366 3.31651C80.6531 3.83915 80.7646 4.39932 80.7646 4.96503V8.28895Z" fill="#002169"/>
<path d="M72.1505 55.0636H41.823C41.121 55.015 40.4635 54.7017 39.9834 54.1872C39.5033 53.6727 39.2363 52.9952 39.2363 52.2914C39.2363 51.5877 39.5033 50.9102 39.9834 50.3957C40.4635 49.8811 41.121 49.5679 41.823 49.5193H72.1505C72.8526 49.5679 73.51 49.8811 73.9901 50.3957C74.4702 50.9102 74.7372 51.5877 74.7372 52.2914C74.7372 52.9952 74.4702 53.6727 73.9901 54.1872C73.51 54.7017 72.8526 55.015 72.1505 55.0636Z" fill="white"/>
<path d="M71.087 53.5478H65.2236C65.2015 53.5479 65.1796 53.5434 65.1593 53.5346C65.139 53.5257 65.1208 53.5128 65.1058 53.4965C65.0908 53.4803 65.0793 53.4611 65.0721 53.4402C65.0649 53.4192 65.0622 53.397 65.064 53.375V51.2477C65.064 51.2054 65.0808 51.1648 65.1108 51.1349C65.1407 51.1049 65.1813 51.0881 65.2236 51.0881H71.087C71.1293 51.0881 71.1699 51.1049 71.1998 51.1349C71.2297 51.1648 71.2465 51.2054 71.2465 51.2477V53.375C71.2484 53.397 71.2456 53.4192 71.2384 53.4402C71.2312 53.4611 71.2198 53.4803 71.2048 53.4965C71.1898 53.5128 71.1716 53.5257 71.1513 53.5346C71.131 53.5434 71.1091 53.5479 71.087 53.5478ZM65.3565 53.2155H70.8743V51.4205H65.3565V53.2155Z" fill="white"/>
<g style="mix-blend-mode:multiply" opacity="0.5">
<g style="mix-blend-mode:multiply" opacity="0.5">
<g style="mix-blend-mode:multiply" opacity="0.5">
<g style="mix-blend-mode:multiply" opacity="0.5">
<path d="M75.3408 5.04443H79.4226V56.6982C79.4191 57.4576 79.115 58.1846 78.5768 58.7203C78.0386 59.256 77.3101 59.5568 76.5507 59.5568H75.3408V5.04443Z" fill="#D8D7D7"/>
</g>
</g>
</g>
</g>
<g style="mix-blend-mode:multiply" opacity="0.5">
<g style="mix-blend-mode:multiply" opacity="0.5">
<g style="mix-blend-mode:multiply" opacity="0.5">
<g style="mix-blend-mode:multiply" opacity="0.5">
<path d="M54.6309 8.57788H35.6533V65.6429C35.6572 66.4818 35.9932 67.285 36.5878 67.8768C37.1823 68.4686 37.9871 68.8009 38.826 68.8009H54.6309V8.57788Z" fill="#D8D7D7"/>
</g>
</g>
</g>
</g>
<path d="M80.0892 57.6033H33.9531V60.9671H80.0892V57.6033Z" fill="#002169"/>
<rect x="35.8711" y="8.72668" width="43.4659" height="50.9589" stroke="#002169" stroke-width="1.5"/>
<circle cx="58.4508" cy="33.8553" r="10.8024" fill="#002169"/>
<path d="M65.8767 30.8129C65.8767 30.8129 65.8767 30.5498 65.8767 30.517C65.8767 30.4841 65.8767 30.517 65.8767 30.3526C65.892 30.3161 65.9 30.277 65.9 30.2375C65.9 30.1979 65.892 30.1588 65.8767 30.1224C65.8181 30.0203 65.7399 29.9309 65.6465 29.8593H65.3835L65.1862 29.6621L64.8245 29.136C64.8896 28.9441 64.8896 28.736 64.8245 28.5441C64.726 28.4514 64.6477 28.3395 64.5943 28.2153C64.5943 28.2153 64.5943 27.8865 64.4299 27.8208C64.2655 27.755 64.4299 27.8208 64.1669 27.8208C63.9038 27.8208 64.1669 27.5577 64.1669 27.5906C64.1669 27.5906 64.1669 27.6235 64.1669 27.5906C64.1318 27.3067 64.1318 27.0196 64.1669 26.7357C64.2197 26.409 64.2197 26.076 64.1669 25.7493C64.1669 25.7493 63.9367 25.7493 63.8709 25.9466C63.8515 26.0442 63.8515 26.1448 63.8709 26.2425C63.8709 26.2425 63.8709 26.5055 63.7065 26.5713C63.5556 26.8128 63.4237 27.0656 63.312 27.3275C63.2197 27.4562 63.1528 27.6013 63.1147 27.755L62.8517 27.9852C62.8341 28.0385 62.8341 28.0962 62.8517 28.1496C62.657 28.1916 62.476 28.2821 62.3256 28.4126C62.1375 28.5007 61.9862 28.6519 61.8981 28.84C61.7817 28.7894 61.6799 28.7102 61.6022 28.6099C61.6022 28.6099 61.6022 28.4126 61.372 28.6099C61.372 28.6099 61.109 28.6099 61.0761 28.84C61.0525 28.8916 61.0402 28.9477 61.0402 29.0045C61.0402 29.0612 61.0525 29.1173 61.0761 29.1689V29.3661C61.1321 29.5428 61.2485 29.6941 61.4049 29.7936C61.3156 29.8325 61.2399 29.897 61.1872 29.9789C61.1346 30.0609 61.1073 30.1565 61.109 30.2539C61.109 30.2539 60.9446 30.4183 60.8788 30.7142H61.0761V30.9444C61.0761 30.9444 60.8788 31.1417 60.813 31.1088L60.3527 30.8787C60.165 30.7938 59.9654 30.7383 59.7609 30.7142C59.3334 30.7142 58.9717 30.0895 58.6429 29.8265C58.0216 29.3081 57.2909 28.9371 56.5057 28.7414C55.9796 28.7414 55.8809 28.7414 55.8152 28.5112C55.8152 28.5112 55.8152 28.5112 55.8152 28.7414C55.641 28.7132 55.4633 28.7132 55.2891 28.7414H55.5521C54.9433 28.8368 54.3474 29.0023 53.7766 29.2346C53.7766 29.2346 53.1519 29.0373 52.9546 28.6756C52.8931 28.5496 52.7929 28.4465 52.6687 28.3815C52.5445 28.3164 52.4027 28.2927 52.2641 28.314C52.001 28.314 51.9353 28.314 51.9024 28.0509C51.9024 28.0509 51.9024 28.2153 51.9024 28.314C51.7635 28.3592 51.6138 28.3592 51.4749 28.314C51.5958 28.3772 51.6894 28.4824 51.738 28.6099C51.738 28.6099 51.738 28.6099 51.5078 28.6099H51.6722C51.589 28.8325 51.589 29.0777 51.6722 29.3004C51.8695 29.5963 52.1983 29.3004 52.5271 29.8593L52.8559 30.221C52.8559 31.0102 53.2505 31.339 53.0532 32.1281C52.9701 32.5015 52.8012 32.8505 52.56 33.1474C52.4867 33.2392 52.3976 33.3171 52.297 33.3776C52.2145 33.4158 52.1248 33.4356 52.0339 33.4356C51.9431 33.4356 51.8533 33.4158 51.7709 33.3776L51.4092 33.542C51.5156 33.5796 51.6316 33.5796 51.738 33.542C51.738 34.0681 52.1983 34.6599 51.9353 35.1202C51.6722 35.5806 51.9353 35.5806 51.9353 35.7779C51.9353 35.9751 51.9353 35.7779 51.9353 36.0738C51.9353 36.3697 52.1326 36.0738 52.1654 36.3697C52.1983 36.6656 52.1654 36.3697 51.9682 36.6985C51.9328 36.8657 51.9484 37.0396 52.0129 37.1979C52.0773 37.3561 52.1877 37.4914 52.3298 37.5863C52.5271 37.7507 52.8559 37.389 52.8559 37.2246C52.8834 37.0393 52.8834 36.851 52.8559 36.6656C52.7628 36.1547 52.7628 35.6312 52.8559 35.1202C52.9322 34.7663 53.0537 34.4238 53.2176 34.101C53.4347 33.9288 53.6657 33.7748 53.9081 33.6406C53.692 33.8421 53.494 34.0622 53.3163 34.2982C53.3163 34.2982 52.9875 34.5942 53.119 34.8572C53.0992 34.7706 53.0992 34.6807 53.119 34.5942C53.119 34.923 53.119 34.9559 53.119 35.2847C53.119 35.6135 53.6451 36.4355 53.678 36.6656C53.7108 36.8958 53.678 36.9616 53.678 37.126C53.678 37.2904 53.9081 37.3233 54.0068 37.4548C53.9741 37.5271 53.9572 37.6056 53.9572 37.6849C53.9572 37.7643 53.9741 37.8428 54.0068 37.9151C54.008 38.0761 54.0474 38.2346 54.1217 38.3775C54.196 38.5204 54.3031 38.6436 54.4342 38.7371C54.8288 38.9344 54.8288 38.507 54.8288 38.507C54.9594 38.1458 54.9594 37.7502 54.8288 37.389L54.3027 36.9616C54.2862 36.6549 54.2862 36.3476 54.3027 36.0409C54.5 35.3175 54.8945 35.2189 55.1247 35.2189C55.1247 35.2189 55.3549 35.2189 55.1247 35.2189C55.1892 35.2372 55.2575 35.2372 55.322 35.2189C55.3125 35.2843 55.3125 35.3507 55.322 35.4162C55.322 35.4162 55.322 35.2189 55.585 35.2518C55.585 35.2518 55.8481 35.2847 55.585 35.2518C55.6128 35.1776 55.6128 35.0958 55.585 35.0216C56.0454 34.7257 56.5057 33.9366 56.6372 34.101C56.6372 34.101 56.8345 34.2653 56.9003 34.2982H56.6372C56.8424 34.3484 57.0567 34.3484 57.2619 34.2982L56.966 34.4626C57.3935 34.4626 57.788 34.8243 58.1497 34.8901L59.1032 35.186C59.1638 35.5537 59.2518 35.9164 59.3663 36.2711C59.3585 36.6302 59.2918 36.9857 59.169 37.3233C59.169 37.3233 59.169 37.5863 58.9717 37.6192C59.0026 37.6338 59.0363 37.6414 59.0704 37.6414C59.1045 37.6414 59.1382 37.6338 59.169 37.6192C59.1449 37.6527 59.132 37.693 59.132 37.7343C59.132 37.7756 59.1449 37.8158 59.169 37.8493C59.2813 37.9882 59.4021 38.12 59.5307 38.2439C59.8114 38.7234 60.0427 39.2302 60.2212 39.7564C60.2212 39.7564 60.2212 40.3812 60.55 40.414C60.55 40.6771 60.55 40.6442 60.8459 40.7757C61.1419 40.9072 60.8459 41.1703 61.0103 41.236C61.2943 41.2689 61.5812 41.2689 61.8652 41.236C61.8898 41.1238 61.8845 41.007 61.8499 40.8974C61.8153 40.7877 61.7526 40.6891 61.6679 40.6113C61.646 40.4839 61.6015 40.3614 61.5364 40.2496C61.4705 40.013 61.4705 39.7629 61.5364 39.5263C61.5364 39.5263 61.5364 38.6056 61.5364 38.5398C61.5364 38.4741 61.3391 37.9151 61.3391 37.5205C61.3391 37.126 61.6022 36.8629 61.6679 36.4355C61.6017 36.0437 61.6017 35.6436 61.6679 35.2518C61.8652 34.8572 62.1283 34.5284 62.2927 34.1338C62.3582 33.9324 62.435 33.7348 62.5228 33.542C62.7423 33.2853 62.8998 32.9815 62.9832 32.6542C63.1408 32.405 63.273 32.1407 63.3777 31.8651C63.3777 31.5034 63.3777 31.4376 63.6408 31.339C63.9038 31.2403 64.0682 31.339 64.2326 31.339H65.1204C65.3047 31.378 65.4951 31.378 65.6794 31.339C65.8767 31.339 65.6794 31.1746 65.6794 31.0759" fill="white"/>
<mask id="mask0_1368_3302" style="mask-type:alpha" maskUnits="userSpaceOnUse" x="79" y="17" width="22" height="30">
<rect x="79.8838" y="17.697" width="20.794" height="28.6637" fill="#C4C4C4"/>
</mask>
<g mask="url(#mask0_1368_3302)">
<circle cx="85.3368" cy="32.3004" r="8.36512" fill="#002169"/>
<path d="M91.0871 29.9446C91.0871 29.9446 91.0871 29.7409 91.0871 29.7154C91.0871 29.69 91.0871 29.7154 91.0871 29.5881C91.099 29.5599 91.1051 29.5296 91.1051 29.499C91.1051 29.4684 91.099 29.4381 91.0871 29.4099C91.0418 29.3309 90.9812 29.2616 90.9089 29.2062H90.7052L90.5524 29.0534L90.2723 28.646C90.3228 28.4974 90.3228 28.3363 90.2723 28.1877C90.1961 28.1159 90.1354 28.0293 90.0941 27.9331C90.0941 27.9331 90.0941 27.6785 89.9668 27.6276C89.8395 27.5766 89.9668 27.6276 89.7631 27.6276C89.5594 27.6276 89.7631 27.4239 89.7631 27.4493C89.7631 27.4493 89.7631 27.4748 89.7631 27.4493C89.7359 27.2295 89.7359 27.0071 89.7631 26.7873C89.804 26.5343 89.804 26.2764 89.7631 26.0234C89.7631 26.0234 89.5848 26.0234 89.5339 26.1762C89.5188 26.2519 89.5188 26.3297 89.5339 26.4054C89.5339 26.4054 89.5339 26.6091 89.4066 26.66C89.2897 26.847 89.1876 27.0428 89.1011 27.2456C89.0296 27.3453 88.9778 27.4576 88.9483 27.5766L88.7446 27.7549C88.731 27.7962 88.731 27.8408 88.7446 27.8822C88.5938 27.9147 88.4537 27.9848 88.3372 28.0859C88.1916 28.1541 88.0744 28.2712 88.0062 28.4169C87.9161 28.3776 87.8373 28.3163 87.777 28.2386C87.777 28.2386 87.777 28.0859 87.5988 28.2386C87.5988 28.2386 87.3951 28.2386 87.3696 28.4169C87.3513 28.4568 87.3419 28.5002 87.3419 28.5442C87.3419 28.5881 87.3513 28.6316 87.3696 28.6715V28.8243C87.413 28.9611 87.5032 29.0783 87.6243 29.1553C87.5551 29.1854 87.4965 29.2354 87.4557 29.2988C87.4149 29.3623 87.3938 29.4363 87.3951 29.5117C87.3951 29.5117 87.2678 29.6391 87.2169 29.8682H87.3696V30.0464C87.3696 30.0464 87.2169 30.1992 87.1659 30.1738L86.8095 29.9955C86.6641 29.9298 86.5096 29.8869 86.3512 29.8682C86.0202 29.8682 85.7401 29.3844 85.4854 29.1807C85.0043 28.7793 84.4385 28.492 83.8304 28.3405C83.423 28.3405 83.3466 28.3405 83.2957 28.1623C83.2957 28.1623 83.2957 28.1623 83.2957 28.3405C83.1608 28.3186 83.0232 28.3186 82.8883 28.3405H83.092C82.6205 28.4143 82.1591 28.5425 81.7171 28.7224C81.7171 28.7224 81.2333 28.5696 81.0805 28.2896C81.0329 28.192 80.9553 28.1122 80.8591 28.0618C80.7629 28.0114 80.6532 27.9931 80.5458 28.0095C80.3421 28.0095 80.2912 28.0095 80.2657 27.8058C80.2657 27.8058 80.2657 27.9331 80.2657 28.0095C80.1582 28.0445 80.0423 28.0445 79.9347 28.0095C80.0283 28.0585 80.1008 28.14 80.1384 28.2386C80.1384 28.2386 80.1384 28.2386 79.9602 28.2386H80.0875C80.0231 28.4111 80.0231 28.6009 80.0875 28.7733C80.2403 29.0025 80.4949 28.7733 80.7495 29.2062L81.0041 29.4863C81.0041 30.0974 81.3097 30.352 81.1569 30.9631C81.0925 31.2523 80.9618 31.5225 80.775 31.7524C80.7182 31.8235 80.6492 31.8838 80.5713 31.9306C80.5074 31.9603 80.4379 31.9756 80.3676 31.9756C80.2972 31.9756 80.2277 31.9603 80.1639 31.9306L79.8838 32.058C79.9662 32.0871 80.056 32.0871 80.1384 32.058C80.1384 32.4653 80.4949 32.9237 80.2912 33.2801C80.0875 33.6366 80.2912 33.6366 80.2912 33.7894C80.2912 33.9421 80.2912 33.7894 80.2912 34.0185C80.2912 34.2477 80.444 34.0185 80.4694 34.2477C80.4949 34.4769 80.4694 34.2477 80.3166 34.5023C80.2893 34.6318 80.3013 34.7665 80.3513 34.889C80.4012 35.0115 80.4867 35.1163 80.5967 35.1898C80.7495 35.3171 81.0041 35.037 81.0041 34.9097C81.0254 34.7662 81.0254 34.6204 81.0041 34.4769C80.932 34.0812 80.932 33.6758 81.0041 33.2801C81.0632 33.0061 81.1573 32.7408 81.2842 32.4908C81.4523 32.3575 81.6312 32.2382 81.8189 32.1343C81.6516 32.2904 81.4982 32.4608 81.3606 32.6436C81.3606 32.6436 81.106 32.8727 81.2078 33.0764C81.1925 33.0094 81.1925 32.9398 81.2078 32.8727C81.2078 33.1274 81.2078 33.1528 81.2078 33.4074C81.2078 33.6621 81.6152 34.2986 81.6407 34.4769C81.6661 34.6551 81.6407 34.706 81.6407 34.8333C81.6407 34.9606 81.8189 34.9861 81.8953 35.0879C81.87 35.144 81.8569 35.2047 81.8569 35.2662C81.8569 35.3276 81.87 35.3884 81.8953 35.4444C81.8963 35.5691 81.9268 35.6918 81.9843 35.8025C82.0418 35.9131 82.1248 36.0086 82.2263 36.081C82.5319 36.2337 82.5318 35.9027 82.5318 35.9027C82.633 35.623 82.633 35.3167 82.5318 35.037L82.1245 34.706C82.1117 34.4685 82.1117 34.2306 82.1245 33.9931C82.2772 33.4329 82.5828 33.3565 82.761 33.3565C82.761 33.3565 82.9392 33.3565 82.761 33.3565C82.8109 33.3707 82.8638 33.3707 82.9138 33.3565C82.9065 33.4072 82.9065 33.4586 82.9138 33.5093C82.9138 33.5093 82.9138 33.3565 83.1175 33.382C83.1175 33.382 83.3212 33.4074 83.1175 33.382C83.1389 33.3245 83.1389 33.2612 83.1175 33.2037C83.4739 32.9746 83.8304 32.3635 83.9323 32.4908C83.9323 32.4908 84.085 32.6181 84.136 32.6436H83.9323C84.0912 32.6824 84.2571 32.6824 84.416 32.6436L84.1869 32.7709C84.5179 32.7709 84.8234 33.051 85.1035 33.1019L85.8419 33.3311C85.8888 33.6158 85.9569 33.8967 86.0456 34.1713C86.0395 34.4494 85.9879 34.7247 85.8928 34.9861C85.8928 34.9861 85.8928 35.1898 85.7401 35.2153C85.7639 35.2266 85.79 35.2324 85.8165 35.2324C85.8429 35.2324 85.869 35.2266 85.8928 35.2153C85.8742 35.2412 85.8642 35.2724 85.8642 35.3044C85.8642 35.3363 85.8742 35.3675 85.8928 35.3935C85.9798 35.501 86.0733 35.6031 86.1729 35.699C86.3903 36.0704 86.5694 36.4628 86.7076 36.8703C86.7076 36.8703 86.7076 37.3541 86.9623 37.3795C86.9623 37.5832 86.9623 37.5578 87.1914 37.6596C87.4206 37.7615 87.1914 37.9652 87.3187 38.0161C87.5387 38.0416 87.7608 38.0416 87.9807 38.0161C87.9998 37.9291 87.9957 37.8387 87.9689 37.7538C87.9421 37.6689 87.8935 37.5926 87.828 37.5323C87.811 37.4336 87.7765 37.3388 87.7261 37.2522C87.6751 37.069 87.6751 36.8753 87.7261 36.6921C87.7261 36.6921 87.7261 35.9791 87.7261 35.9282C87.7261 35.8773 87.5733 35.4444 87.5733 35.1389C87.5733 34.8333 87.777 34.6296 87.828 34.2986C87.7767 33.9952 87.7767 33.6854 87.828 33.382C87.9807 33.0764 88.1844 32.8218 88.3117 32.5163C88.3625 32.3603 88.422 32.2072 88.49 32.058C88.6599 31.8591 88.7819 31.6239 88.8464 31.3705C88.9685 31.1775 89.0709 30.9728 89.152 30.7594C89.152 30.4793 89.152 30.4284 89.3557 30.352C89.5594 30.2756 89.6867 30.352 89.814 30.352H90.5015C90.6442 30.3822 90.7916 30.3822 90.9343 30.352C91.0871 30.352 90.9343 30.2247 90.9343 30.1483" fill="white"/>
</g>
<mask id="mask1_1368_3302" style="mask-type:alpha" maskUnits="userSpaceOnUse" x="9" y="17" width="22" height="29">
<rect x="9.98438" y="17.219" width="20.794" height="28.6637" fill="#C4C4C4"/>
</mask>
<g mask="url(#mask1_1368_3302)">
<circle cx="24.5878" cy="32.16" r="8.36512" fill="#002169"/>
<path d="M30.3381 29.8042C30.3381 29.8042 30.3381 29.6005 30.3381 29.5751C30.3381 29.5496 30.3381 29.5751 30.3381 29.4478C30.35 29.4196 30.3561 29.3892 30.3561 29.3586C30.3561 29.328 30.35 29.2977 30.3381 29.2695C30.2928 29.1905 30.2322 29.1212 30.1599 29.0658H29.9562L29.8034 28.913L29.5233 28.5056C29.5737 28.357 29.5737 28.1959 29.5233 28.0473C29.4471 27.9756 29.3864 27.8889 29.3451 27.7927C29.3451 27.7927 29.3451 27.5381 29.2178 27.4872C29.0904 27.4362 29.2178 27.4872 29.0141 27.4872C28.8104 27.4872 29.0141 27.2835 29.0141 27.3089C29.0141 27.3089 29.0141 27.3344 29.0141 27.3089C28.9869 27.0891 28.9869 26.8668 29.0141 26.6469C29.0549 26.3939 29.0549 26.136 29.0141 25.8831C29.0141 25.8831 28.8358 25.8831 28.7849 26.0358C28.7698 26.1115 28.7698 26.1894 28.7849 26.265C28.7849 26.265 28.7849 26.4687 28.6576 26.5196C28.5407 26.7066 28.4386 26.9024 28.352 27.1052C28.2806 27.2049 28.2288 27.3172 28.1993 27.4362L27.9956 27.6145C27.982 27.6558 27.982 27.7004 27.9956 27.7418C27.8448 27.7743 27.7047 27.8444 27.5882 27.9455C27.4425 28.0137 27.3254 28.1308 27.2572 28.2765C27.167 28.2373 27.0882 28.176 27.028 28.0983C27.028 28.0983 27.028 27.9455 26.8498 28.0983C26.8498 28.0983 26.6461 28.0983 26.6206 28.2765C26.6023 28.3164 26.5928 28.3599 26.5928 28.4038C26.5928 28.4477 26.6023 28.4912 26.6206 28.5311V28.6839C26.664 28.8207 26.7541 28.9379 26.8752 29.0149C26.8061 29.045 26.7475 29.095 26.7067 29.1584C26.6659 29.2219 26.6448 29.296 26.6461 29.3714C26.6461 29.3714 26.5188 29.4987 26.4678 29.7278H26.6206V29.9061C26.6206 29.9061 26.4678 30.0588 26.4169 30.0334L26.0605 29.8551C25.9151 29.7894 25.7605 29.7465 25.6021 29.7278C25.2711 29.7278 24.991 29.2441 24.7364 29.0404C24.2553 28.6389 23.6894 28.3517 23.0814 28.2001C22.674 28.2001 22.5976 28.2001 22.5467 28.0219C22.5467 28.0219 22.5467 28.0219 22.5467 28.2001C22.4118 28.1782 22.2742 28.1782 22.1393 28.2001H22.343C21.8715 28.274 21.4101 28.4021 20.968 28.582C20.968 28.582 20.4843 28.4293 20.3315 28.1492C20.2839 28.0516 20.2063 27.9718 20.1101 27.9214C20.0139 27.871 19.9041 27.8527 19.7968 27.8691C19.5931 27.8691 19.5422 27.8691 19.5167 27.6654C19.5167 27.6654 19.5167 27.7927 19.5167 27.8691C19.4091 27.9041 19.2932 27.9041 19.1857 27.8691C19.2793 27.9181 19.3517 27.9996 19.3894 28.0983C19.3894 28.0983 19.3894 28.0983 19.2112 28.0983H19.3385C19.274 28.2707 19.274 28.4605 19.3385 28.633C19.4912 28.8621 19.7459 28.633 20.0005 29.0658L20.2551 29.3459C20.2551 29.957 20.5606 30.2116 20.4079 30.8227C20.3435 31.1119 20.2128 31.3821 20.0259 31.612C19.9692 31.6831 19.9002 31.7434 19.8222 31.7903C19.7584 31.8199 19.6889 31.8352 19.6186 31.8352C19.5482 31.8352 19.4787 31.8199 19.4149 31.7903L19.1348 31.9176C19.2171 31.9467 19.307 31.9467 19.3894 31.9176C19.3894 32.325 19.7459 32.7833 19.5422 33.1397C19.3385 33.4962 19.5422 33.4962 19.5422 33.649C19.5422 33.8018 19.5422 33.649 19.5422 33.8782C19.5422 34.1073 19.6949 33.8782 19.7204 34.1073C19.7459 34.3365 19.7204 34.1073 19.5676 34.3619C19.5403 34.4914 19.5523 34.6261 19.6022 34.7486C19.6522 34.8712 19.7377 34.9759 19.8477 35.0494C20.0005 35.1767 20.2551 34.8966 20.2551 34.7693C20.2764 34.6258 20.2764 34.48 20.2551 34.3365C20.183 33.9408 20.183 33.5354 20.2551 33.1397C20.3141 32.8657 20.4083 32.6004 20.5352 32.3504C20.7033 32.2171 20.8821 32.0979 21.0699 31.994C20.9026 32.15 20.7492 32.3204 20.6116 32.5032C20.6116 32.5032 20.3569 32.7324 20.4588 32.9361C20.4435 32.869 20.4435 32.7994 20.4588 32.7324C20.4588 32.987 20.4588 33.0124 20.4588 33.2671C20.4588 33.5217 20.8662 34.1582 20.8917 34.3365C20.9171 34.5147 20.8917 34.5656 20.8917 34.6929C20.8917 34.8202 21.0699 34.8457 21.1463 34.9476C21.121 35.0036 21.1079 35.0643 21.1079 35.1258C21.1079 35.1873 21.121 35.248 21.1463 35.304C21.1472 35.4287 21.1777 35.5514 21.2353 35.6621C21.2928 35.7727 21.3757 35.8682 21.4773 35.9406C21.7828 36.0934 21.7828 35.7624 21.7828 35.7624C21.884 35.4826 21.884 35.1764 21.7828 34.8966L21.3754 34.5656C21.3627 34.3282 21.3627 34.0902 21.3754 33.8527C21.5282 33.2925 21.8337 33.2161 22.012 33.2161C22.012 33.2161 22.1902 33.2161 22.012 33.2161C22.0619 33.2303 22.1148 33.2303 22.1648 33.2161C22.1574 33.2668 22.1574 33.3182 22.1648 33.3689C22.1648 33.3689 22.1648 33.2161 22.3685 33.2416C22.3685 33.2416 22.5721 33.2671 22.3685 33.2416C22.3899 33.1841 22.3899 33.1208 22.3685 33.0634C22.7249 32.8342 23.0814 32.2231 23.1832 32.3504C23.1832 32.3504 23.336 32.4777 23.3869 32.5032H23.1832C23.3422 32.5421 23.5081 32.5421 23.667 32.5032L23.4379 32.6305C23.7689 32.6305 24.0744 32.9106 24.3545 32.9615L25.0929 33.1907C25.1398 33.4754 25.2079 33.7563 25.2966 34.0309C25.2905 34.309 25.2389 34.5843 25.1438 34.8457C25.1438 34.8457 25.1438 35.0494 24.9911 35.0749C25.0149 35.0862 25.041 35.0921 25.0674 35.0921C25.0939 35.0921 25.1199 35.0862 25.1438 35.0749C25.1252 35.1008 25.1151 35.132 25.1151 35.164C25.1151 35.196 25.1252 35.2271 25.1438 35.2531C25.2308 35.3607 25.3243 35.4627 25.4239 35.5587C25.6413 35.93 25.8204 36.3224 25.9586 36.7299C25.9586 36.7299 25.9586 37.2137 26.2132 37.2391C26.2132 37.4428 26.2132 37.4174 26.4424 37.5192C26.6715 37.6211 26.4424 37.8248 26.5697 37.8757C26.7896 37.9012 27.0118 37.9012 27.2317 37.8757C27.2507 37.7887 27.2467 37.6983 27.2199 37.6134C27.1931 37.5285 27.1445 37.4522 27.0789 37.3919C27.062 37.2932 27.0275 37.1984 26.9771 37.1118C26.9261 36.9286 26.9261 36.7349 26.9771 36.5517C26.9771 36.5517 26.9771 35.8387 26.9771 35.7878C26.9771 35.7369 26.8243 35.304 26.8243 34.9985C26.8243 34.6929 27.028 34.4892 27.0789 34.1582C27.0277 33.8548 27.0277 33.545 27.0789 33.2416C27.2317 32.9361 27.4354 32.6814 27.5627 32.3759C27.6134 32.2199 27.673 32.0669 27.741 31.9176C27.9109 31.7188 28.0329 31.4835 28.0974 31.2301C28.2195 31.0371 28.3218 30.8324 28.403 30.619C28.403 30.3389 28.403 30.288 28.6067 30.2116C28.8104 30.1352 28.9377 30.2116 29.065 30.2116H29.7525C29.8952 30.2419 30.0426 30.2419 30.1853 30.2116C30.3381 30.2116 30.1853 30.0843 30.1853 30.0079" fill="white"/>
</g>
</g>
</svg>
