<svg width="50" height="67" viewBox="0 0 50 67" fill="none" xmlns="http://www.w3.org/2000/svg">
<path d="M39.7089 16.9126C39.7089 8.16069 32.5718 1 23.8486 1C15.1254 1 7.98828 8.16069 7.98828 16.9126C7.98828 28.8471 23.8486 40.7816 23.8486 40.7816C23.8486 40.7816 39.7089 28.8471 39.7089 16.9126Z" fill="white" stroke="#002169" stroke-width="2" stroke-miterlimit="10" stroke-linecap="round" stroke-linejoin="round"/>
<path d="M23.8465 23.5431C27.8612 23.5431 31.1158 20.2778 31.1158 16.2498C31.1158 12.2219 27.8612 8.95654 23.8465 8.95654C19.8317 8.95654 16.5771 12.2219 16.5771 16.2498C16.5771 20.2778 19.8317 23.5431 23.8465 23.5431Z" stroke="#002169" stroke-width="2" stroke-miterlimit="10" stroke-linecap="round" stroke-linejoin="round"/>
<path d="M35.0001 44.7561H42.764C45.7048 44.7561 48.0575 47.1165 48.0575 50.0671C48.0575 53.0176 45.7048 55.378 42.764 55.378H12.1792C9.23841 55.378 6.88574 57.7385 6.88574 60.689C6.88574 63.6396 9.23841 66 12.1792 66H21.0018" stroke="#002169" stroke-width="2" stroke-miterlimit="10" stroke-linecap="round" stroke-linejoin="round"/>
<path d="M1 44.7561H13.9397" stroke="#002169" stroke-width="2" stroke-miterlimit="10" stroke-linecap="round" stroke-linejoin="round"/>
<path d="M28.0527 65.9988H33.9344" stroke="#002169" stroke-width="2" stroke-miterlimit="10" stroke-linecap="round" stroke-linejoin="round"/>
</svg>
