<svg width="11" height="12" viewBox="0 0 11 12" fill="none" xmlns="http://www.w3.org/2000/svg">
<path fill-rule="evenodd" clip-rule="evenodd" d="M1.41683 4.66255C2.53932 7.33052 4.53675 9.45163 7.01983 10.601L7.02767 10.6046L7.50737 10.838C8.1182 11.1351 8.83618 10.9241 9.22782 10.3324L10.0282 9.12332C10.077 9.04947 10.0644 8.94678 9.99948 8.88957L8.60229 7.6592C8.53283 7.59804 8.43069 7.61228 8.37756 7.69054L7.83377 8.4915C7.70171 8.68602 7.46321 8.7536 7.26114 8.65378C5.40443 7.7366 3.91242 6.10801 3.07216 4.08133C2.98071 3.86076 3.04263 3.60043 3.22084 3.45628L3.95461 2.86272C4.02631 2.80472 4.03936 2.69323 3.98333 2.61742L2.85599 1.09211C2.80359 1.02121 2.70955 1.00744 2.64189 1.06076L1.52821 1.93833C0.982587 2.36828 0.790437 3.15858 1.06894 3.82727L1.41646 4.66166C1.41658 4.66196 1.41671 4.66225 1.41683 4.66255ZM6.64809 11.5458C3.95007 10.2957 1.78 7.9903 0.560342 5.09072L0.559607 5.08897L0.211364 4.25284C-0.252812 3.13835 0.0674374 1.82119 0.976811 1.1046L2.09049 0.22703C2.5641 -0.146171 3.22242 -0.0497839 3.58918 0.446459L4.71652 1.97177C5.10876 2.50248 5.0174 3.28287 4.5155 3.68887L4.09504 4.02899C4.80528 5.53329 5.93095 6.762 7.30909 7.53727L7.6207 7.0783C7.99264 6.53046 8.70759 6.43074 9.19378 6.85889L10.591 8.08926C11.0457 8.48972 11.1339 9.20858 10.7917 9.72554L9.9914 10.9346C9.33867 11.9207 8.14204 12.2724 7.12398 11.7773L6.64809 11.5458Z" fill="#002169"/>
</svg>
