<svg width="22" height="21" viewBox="0 0 22 21" fill="none" xmlns="http://www.w3.org/2000/svg">
<path fill-rule="evenodd" clip-rule="evenodd" d="M9.15225 0.590214C9.9392 -0.196738 11.2151 -0.196738 12.002 0.590213L13.0286 1.61682C13.5325 2.12069 14.2159 2.40377 14.9285 2.40377H16.5816C17.6945 2.40377 18.5967 3.30597 18.5967 4.41888V6.07195C18.5967 6.78454 18.8797 7.46795 19.3836 7.97182L20.4869 9.07516C21.2739 9.86211 21.2739 11.138 20.4869 11.925L19.3836 13.0283C18.8797 13.5322 18.5967 14.2156 18.5967 14.9282V16.4184C18.5967 17.5313 17.6945 18.4335 16.5816 18.4335H15.0913C14.3787 18.4335 13.6953 18.7166 13.1915 19.2205L12.002 20.4099C11.2151 21.1969 9.9392 21.1969 9.15226 20.4099L7.96283 19.2205C7.45896 18.7166 6.77556 18.4335 6.06297 18.4335H4.58211C3.4692 18.4335 2.567 17.5313 2.567 16.4184V14.9375C2.567 14.2249 2.28393 13.5415 1.78005 13.0377L0.66736 11.925C-0.119589 11.138 -0.119588 9.86211 0.667358 9.07516L1.78005 7.96246C2.28393 7.45858 2.567 6.77518 2.567 6.06259V4.41889C2.567 3.30597 3.4692 2.40377 4.5821 2.40377H6.2258C6.93839 2.40377 7.62179 2.12069 8.12566 1.61682L9.15225 0.590214Z" fill="#F08AB7"/>
<rect width="1.73138" height="8.24662" rx="0.865691" transform="matrix(0.707128 0.707085 -0.707128 0.707085 13.1553 7.07275)" fill="white"/>
<circle cx="8.43756" cy="8.25641" r="1.36041" fill="white"/>
<circle cx="13.3839" cy="13.2071" r="1.36041" fill="white"/>
</svg>
